<svg xmlns="http://www.w3.org/2000/svg" xmlns:xlink="http://www.w3.org/1999/xlink" width="500" zoomAndPan="magnify" viewBox="0 0 375 374.999991" height="500" preserveAspectRatio="xMidYMid meet" version="1.0"><defs><clipPath id="07dbcc79fd"><path d="M 105.195312 86.445312 L 280.355469 86.445312 L 280.355469 132.402344 L 105.195312 132.402344 Z M 105.195312 86.445312 " clip-rule="nonzero"/></clipPath><clipPath id="84a294a7fd"><path d="M 122.925781 102.074219 C 120.523438 99.601562 119.773438 99.675781 118.949219 99.898438 C 117.375 100.273438 114.601562 102.226562 113.101562 103.5 C 111.976562 104.398438 111.226562 105.148438 110.398438 106.425781 C 109.199219 108.375 107.773438 111.75 107.25 114.300781 C 106.726562 116.398438 106.574219 118.875 106.875 120.523438 C 107.023438 121.726562 107.175781 122.476562 108 123.375 C 109.5 125.101562 114.300781 127.425781 117.074219 128.101562 C 119.101562 128.625 120.976562 128.699219 122.699219 128.101562 C 124.648438 127.5 126.226562 125.925781 128.101562 124.351562 C 130.574219 122.25 133.425781 119.398438 135.976562 116.476562 C 138.75 113.25 142.351562 108.976562 144.148438 105.675781 C 145.425781 103.273438 146.175781 101.550781 146.550781 99 C 147.074219 96 147.226562 89.398438 146.175781 88.648438 C 145.648438 88.351562 144.675781 88.949219 144.074219 89.476562 C 143.324219 90.226562 142.800781 91.351562 142.199219 93 C 141 95.925781 139.273438 101.476562 138.523438 106.351562 C 137.625 112.050781 136.273438 124.574219 137.625 125.023438 C 138.601562 125.324219 141.523438 117.75 143.550781 115.726562 C 144.898438 114.449219 146.398438 113.699219 147.675781 113.324219 C 148.574219 113.023438 149.476562 113.023438 150.226562 113.175781 C 150.898438 113.324219 151.574219 113.476562 152.101562 113.925781 C 152.773438 114.523438 153.523438 115.425781 153.898438 116.550781 C 154.351562 118.125 153.675781 121.050781 153.898438 122.625 C 154.125 123.75 154.425781 124.800781 154.875 125.476562 C 155.25 125.925781 155.925781 126.375 156.375 126.375 C 156.75 126.449219 156.898438 126.226562 157.351562 126 C 158.25 125.398438 160.351562 124.199219 161.625 122.550781 C 163.5 120.226562 165.148438 112.5 166.050781 112.351562 C 166.351562 112.273438 166.574219 112.574219 166.726562 113.023438 C 167.398438 114.675781 165.675781 124.125 166.574219 126.226562 C 166.949219 126.976562 167.550781 127.351562 168.148438 127.5 C 168.824219 127.726562 169.726562 127.5 170.398438 127.273438 C 171.226562 126.976562 171.824219 126.601562 172.574219 125.851562 C 174 124.5 176.25 121.199219 177.601562 118.800781 C 178.800781 116.550781 180.601562 111.976562 180.449219 111.898438 C 180.375 111.824219 178.050781 115.125 177.601562 116.773438 C 177.148438 118.199219 177.148438 119.625 177.449219 121.125 C 177.75 122.699219 178.648438 124.574219 179.398438 126 C 180.148438 127.199219 180.976562 128.625 181.875 129.074219 C 182.550781 129.375 183.523438 129.074219 184.199219 128.773438 C 184.726562 128.550781 185.101562 128.175781 185.550781 127.425781 C 186.75 125.699219 188.476562 119.324219 189.601562 117.148438 C 190.125 116.101562 190.425781 115.351562 191.101562 114.898438 C 191.773438 114.449219 192.976562 114 193.574219 114.300781 C 194.175781 114.675781 194.25 115.726562 194.476562 117 C 195 119.851562 195.148438 129.675781 194.476562 131.476562 C 194.324219 131.925781 194.101562 132.148438 193.875 132.226562 C 193.574219 132.226562 193.125 131.925781 192.976562 131.476562 C 192.601562 130.050781 194.773438 124.050781 195.523438 121.273438 C 196.050781 119.25 196.351562 117.601562 197.023438 116.101562 C 197.625 114.75 198.449219 113.324219 199.273438 112.574219 C 199.800781 112.050781 200.398438 111.75 201 111.675781 C 201.601562 111.601562 202.425781 111.675781 202.949219 112.199219 C 203.699219 112.949219 203.925781 114.675781 204.300781 116.398438 C 204.824219 119.175781 204.449219 125.625 205.273438 127.273438 C 205.574219 127.875 205.875 128.101562 206.398438 128.324219 C 207.074219 128.550781 208.273438 128.550781 209.023438 128.25 C 209.625 128.023438 209.925781 127.648438 210.449219 126.976562 C 211.273438 125.851562 212.550781 123.601562 213 121.5 C 213.601562 118.949219 213.523438 115.199219 213.074219 112.648438 C 212.773438 110.625 210.898438 108.074219 211.199219 107.25 C 211.273438 106.875 211.574219 106.949219 212.023438 106.726562 C 213.824219 105.824219 219.75 103.273438 225.75 101.175781 C 236.476562 97.425781 262.5 89.625 271.574219 87.675781 C 275.25 86.851562 278.25 86.175781 279.523438 86.625 C 279.976562 86.773438 280.273438 87.148438 280.273438 87.375 C 280.273438 87.601562 279.675781 88.125 279.449219 88.125 C 279.226562 88.050781 278.699219 87.148438 278.851562 87 C 278.925781 86.851562 280.050781 86.851562 280.199219 87.074219 C 280.351562 87.226562 280.125 87.75 279.75 88.050781 C 278.773438 88.800781 275.851562 88.199219 272.324219 88.949219 C 263.476562 90.75 237 98.925781 226.199219 102.601562 C 220.273438 104.699219 213.375 105.824219 212.550781 108 C 212.101562 109.199219 214.199219 110.25 214.574219 111.898438 C 215.175781 114.375 215.175781 118.875 214.5 121.726562 C 213.976562 124.050781 212.550781 126.601562 211.574219 127.949219 C 210.976562 128.699219 210.601562 129.148438 209.773438 129.449219 C 208.800781 129.898438 206.925781 130.050781 205.949219 129.75 C 205.273438 129.601562 204.75 129.375 204.300781 128.851562 C 203.699219 128.023438 203.476562 126.601562 203.25 125.101562 C 202.875 122.851562 203.101562 118.5 202.726562 116.324219 C 202.5 114.976562 202.351562 113.550781 201.824219 113.175781 C 201.601562 112.949219 201.375 112.875 201.074219 113.023438 C 200.324219 113.324219 199.199219 114.898438 198.449219 116.550781 C 197.023438 119.550781 196.273438 128.398438 195.148438 130.648438 C 194.699219 131.476562 194.25 132.148438 193.875 132.226562 C 193.574219 132.226562 193.199219 131.925781 192.976562 131.476562 C 192.148438 129.601562 193.648438 116.023438 192.675781 115.726562 C 192.148438 115.574219 191.25 117.375 190.574219 118.574219 C 189.601562 120.523438 189 124.273438 187.949219 126.300781 C 187.125 127.726562 186.375 129.148438 185.25 129.824219 C 184.125 130.5 182.550781 130.875 181.425781 130.425781 C 180.148438 129.976562 178.949219 127.949219 178.050781 126.601562 C 177.300781 125.398438 176.699219 124.351562 176.324219 122.925781 C 175.875 121.351562 175.648438 119.398438 175.949219 117.523438 C 176.324219 115.5 177.523438 112.425781 178.574219 111.300781 C 179.25 110.550781 180.300781 110.101562 180.898438 110.175781 C 181.273438 110.175781 181.648438 110.550781 181.875 110.925781 C 182.101562 111.300781 182.023438 112.050781 181.949219 112.726562 C 181.800781 113.773438 181.273438 115.050781 180.523438 116.550781 C 179.175781 119.101562 175.648438 124.574219 173.851562 126.523438 C 172.949219 127.5 172.5 128.023438 171.523438 128.398438 C 170.398438 128.851562 168.375 129.148438 167.25 128.699219 C 166.351562 128.324219 165.675781 127.648438 165.226562 126.449219 C 164.25 124.050781 164.25 115.648438 165 113.625 C 165.226562 112.875 165.75 112.351562 166.050781 112.351562 C 166.273438 112.273438 166.648438 112.726562 166.726562 113.023438 C 166.875 113.476562 166.574219 114.074219 166.351562 114.898438 C 165.824219 116.625 164.398438 120.898438 163.273438 122.851562 C 162.523438 124.125 161.851562 124.949219 160.800781 125.773438 C 159.75 126.675781 158.175781 127.648438 157.050781 127.875 C 156.148438 128.023438 155.25 127.800781 154.648438 127.425781 C 154.125 127.050781 153.824219 126.449219 153.523438 125.773438 C 153.074219 124.949219 152.625 123.898438 152.476562 122.699219 C 152.175781 121.050781 153.226562 118.050781 152.550781 116.699219 C 152.023438 115.648438 150.898438 114.824219 149.851562 114.675781 C 148.425781 114.523438 146.324219 115.351562 144.75 116.625 C 142.5 118.425781 140.324219 124.574219 138.675781 125.699219 C 137.925781 126.226562 137.175781 126.523438 136.648438 126.148438 C 135.601562 125.324219 136.050781 119.699219 136.125 116.25 C 136.199219 112.5 136.726562 108.226562 137.476562 104.25 C 138.300781 100.351562 139.648438 95.699219 140.773438 92.851562 C 141.523438 90.976562 142.125 89.398438 143.023438 88.5 C 143.773438 87.824219 144.75 87.375 145.5 87.375 C 146.175781 87.300781 146.925781 87.675781 147.375 88.050781 C 147.824219 88.425781 148.050781 88.800781 148.199219 89.550781 C 148.648438 90.976562 148.425781 94.273438 148.273438 96.300781 C 148.125 98.023438 147.976562 99.449219 147.523438 101.101562 C 147 102.898438 146.476562 104.550781 145.273438 106.648438 C 143.476562 109.726562 140.101562 114.074219 137.023438 117.523438 C 134.023438 120.976562 129.976562 125.023438 127.050781 127.125 C 125.175781 128.476562 123.75 129.449219 121.875 129.824219 C 119.925781 130.199219 117.75 129.824219 115.5 129.074219 C 112.648438 128.175781 107.925781 125.773438 106.425781 123.898438 C 105.601562 122.851562 105.523438 121.875 105.375 120.601562 C 105.148438 118.800781 105.300781 116.398438 105.898438 114.148438 C 106.574219 111.300781 107.851562 107.550781 109.648438 105.074219 C 111.375 102.675781 113.925781 100.425781 116.101562 99.375 C 117.824219 98.550781 120 98.023438 121.425781 98.476562 C 122.625 98.925781 124.125 100.648438 124.273438 101.398438 C 124.351562 101.773438 124.125 102.300781 123.898438 102.449219 C 123.675781 102.523438 122.925781 102.074219 122.925781 102.074219 " clip-rule="nonzero"/></clipPath><clipPath id="d318a0373a"><path d="M 0.195312 0.445312 L 175.355469 0.445312 L 175.355469 46.238281 L 0.195312 46.238281 Z M 0.195312 0.445312 " clip-rule="nonzero"/></clipPath><clipPath id="b32d9d49f7"><path d="M 17.925781 16.074219 C 15.523438 13.601562 14.773438 13.675781 13.949219 13.898438 C 12.375 14.273438 9.601562 16.226562 8.101562 17.5 C 6.976562 18.398438 6.226562 19.148438 5.398438 20.425781 C 4.199219 22.375 2.773438 25.75 2.25 28.300781 C 1.726562 30.398438 1.574219 32.875 1.875 34.523438 C 2.023438 35.726562 2.175781 36.476562 3 37.375 C 4.5 39.101562 9.300781 41.425781 12.074219 42.101562 C 14.101562 42.625 15.976562 42.699219 17.699219 42.101562 C 19.648438 41.5 21.226562 39.925781 23.101562 38.351562 C 25.574219 36.25 28.425781 33.398438 30.976562 30.476562 C 33.75 27.25 37.351562 22.976562 39.148438 19.675781 C 40.425781 17.273438 41.175781 15.550781 41.550781 13 C 42.074219 10 42.226562 3.398438 41.175781 2.648438 C 40.648438 2.351562 39.675781 2.949219 39.074219 3.476562 C 38.324219 4.226562 37.800781 5.351562 37.199219 7 C 36 9.925781 34.273438 15.476562 33.523438 20.351562 C 32.625 26.050781 31.273438 38.574219 32.625 39.023438 C 33.601562 39.324219 36.523438 31.75 38.550781 29.726562 C 39.898438 28.449219 41.398438 27.699219 42.675781 27.324219 C 43.574219 27.023438 44.476562 27.023438 45.226562 27.175781 C 45.898438 27.324219 46.574219 27.476562 47.101562 27.925781 C 47.773438 28.523438 48.523438 29.425781 48.898438 30.550781 C 49.351562 32.125 48.675781 35.050781 48.898438 36.625 C 49.125 37.75 49.425781 38.800781 49.875 39.476562 C 50.25 39.925781 50.925781 40.375 51.375 40.375 C 51.75 40.449219 51.898438 40.226562 52.351562 40 C 53.25 39.398438 55.351562 38.199219 56.625 36.550781 C 58.5 34.226562 60.148438 26.5 61.050781 26.351562 C 61.351562 26.273438 61.574219 26.574219 61.726562 27.023438 C 62.398438 28.675781 60.675781 38.125 61.574219 40.226562 C 61.949219 40.976562 62.550781 41.351562 63.148438 41.5 C 63.824219 41.726562 64.726562 41.5 65.398438 41.273438 C 66.226562 40.976562 66.824219 40.601562 67.574219 39.851562 C 69 38.5 71.25 35.199219 72.601562 32.800781 C 73.800781 30.550781 75.601562 25.976562 75.449219 25.898438 C 75.375 25.824219 73.050781 29.125 72.601562 30.773438 C 72.148438 32.199219 72.148438 33.625 72.449219 35.125 C 72.75 36.699219 73.648438 38.574219 74.398438 40 C 75.148438 41.199219 75.976562 42.625 76.875 43.074219 C 77.550781 43.375 78.523438 43.074219 79.199219 42.773438 C 79.726562 42.550781 80.101562 42.175781 80.550781 41.425781 C 81.75 39.699219 83.476562 33.324219 84.601562 31.148438 C 85.125 30.101562 85.425781 29.351562 86.101562 28.898438 C 86.773438 28.449219 87.976562 28 88.574219 28.300781 C 89.175781 28.675781 89.25 29.726562 89.476562 31 C 90 33.851562 90.148438 43.675781 89.476562 45.476562 C 89.324219 45.925781 89.101562 46.148438 88.875 46.226562 C 88.574219 46.226562 88.125 45.925781 87.976562 45.476562 C 87.601562 44.050781 89.773438 38.050781 90.523438 35.273438 C 91.050781 33.25 91.351562 31.601562 92.023438 30.101562 C 92.625 28.75 93.449219 27.324219 94.273438 26.574219 C 94.800781 26.050781 95.398438 25.75 96 25.675781 C 96.601562 25.601562 97.425781 25.675781 97.949219 26.199219 C 98.699219 26.949219 98.925781 28.675781 99.300781 30.398438 C 99.824219 33.175781 99.449219 39.625 100.273438 41.273438 C 100.574219 41.875 100.875 42.101562 101.398438 42.324219 C 102.074219 42.550781 103.273438 42.550781 104.023438 42.25 C 104.625 42.023438 104.925781 41.648438 105.449219 40.976562 C 106.273438 39.851562 107.550781 37.601562 108 35.5 C 108.601562 32.949219 108.523438 29.199219 108.074219 26.648438 C 107.773438 24.625 105.898438 22.074219 106.199219 21.25 C 106.273438 20.875 106.574219 20.949219 107.023438 20.726562 C 108.824219 19.824219 114.75 17.273438 120.75 15.175781 C 131.476562 11.425781 157.5 3.625 166.574219 1.675781 C 170.25 0.851562 173.25 0.175781 174.523438 0.625 C 174.976562 0.773438 175.273438 1.148438 175.273438 1.375 C 175.273438 1.601562 174.675781 2.125 174.449219 2.125 C 174.226562 2.050781 173.699219 1.148438 173.851562 1 C 173.925781 0.851562 175.050781 0.851562 175.199219 1.074219 C 175.351562 1.226562 175.125 1.75 174.75 2.050781 C 173.773438 2.800781 170.851562 2.199219 167.324219 2.949219 C 158.476562 4.75 132 12.925781 121.199219 16.601562 C 115.273438 18.699219 108.375 19.824219 107.550781 22 C 107.101562 23.199219 109.199219 24.25 109.574219 25.898438 C 110.175781 28.375 110.175781 32.875 109.5 35.726562 C 108.976562 38.050781 107.550781 40.601562 106.574219 41.949219 C 105.976562 42.699219 105.601562 43.148438 104.773438 43.449219 C 103.800781 43.898438 101.925781 44.050781 100.949219 43.75 C 100.273438 43.601562 99.75 43.375 99.300781 42.851562 C 98.699219 42.023438 98.476562 40.601562 98.25 39.101562 C 97.875 36.851562 98.101562 32.5 97.726562 30.324219 C 97.5 28.976562 97.351562 27.550781 96.824219 27.175781 C 96.601562 26.949219 96.375 26.875 96.074219 27.023438 C 95.324219 27.324219 94.199219 28.898438 93.449219 30.550781 C 92.023438 33.550781 91.273438 42.398438 90.148438 44.648438 C 89.699219 45.476562 89.25 46.148438 88.875 46.226562 C 88.574219 46.226562 88.199219 45.925781 87.976562 45.476562 C 87.148438 43.601562 88.648438 30.023438 87.675781 29.726562 C 87.148438 29.574219 86.25 31.375 85.574219 32.574219 C 84.601562 34.523438 84 38.273438 82.949219 40.300781 C 82.125 41.726562 81.375 43.148438 80.25 43.824219 C 79.125 44.5 77.550781 44.875 76.425781 44.425781 C 75.148438 43.976562 73.949219 41.949219 73.050781 40.601562 C 72.300781 39.398438 71.699219 38.351562 71.324219 36.925781 C 70.875 35.351562 70.648438 33.398438 70.949219 31.523438 C 71.324219 29.5 72.523438 26.425781 73.574219 25.300781 C 74.25 24.550781 75.300781 24.101562 75.898438 24.175781 C 76.273438 24.175781 76.648438 24.550781 76.875 24.925781 C 77.101562 25.300781 77.023438 26.050781 76.949219 26.726562 C 76.800781 27.773438 76.273438 29.050781 75.523438 30.550781 C 74.175781 33.101562 70.648438 38.574219 68.851562 40.523438 C 67.949219 41.5 67.5 42.023438 66.523438 42.398438 C 65.398438 42.851562 63.375 43.148438 62.25 42.699219 C 61.351562 42.324219 60.675781 41.648438 60.226562 40.449219 C 59.25 38.050781 59.25 29.648438 60 27.625 C 60.226562 26.875 60.75 26.351562 61.050781 26.351562 C 61.273438 26.273438 61.648438 26.726562 61.726562 27.023438 C 61.875 27.476562 61.574219 28.074219 61.351562 28.898438 C 60.824219 30.625 59.398438 34.898438 58.273438 36.851562 C 57.523438 38.125 56.851562 38.949219 55.800781 39.773438 C 54.75 40.675781 53.175781 41.648438 52.050781 41.875 C 51.148438 42.023438 50.25 41.800781 49.648438 41.425781 C 49.125 41.050781 48.824219 40.449219 48.523438 39.773438 C 48.074219 38.949219 47.625 37.898438 47.476562 36.699219 C 47.175781 35.050781 48.226562 32.050781 47.550781 30.699219 C 47.023438 29.648438 45.898438 28.824219 44.851562 28.675781 C 43.425781 28.523438 41.324219 29.351562 39.75 30.625 C 37.5 32.425781 35.324219 38.574219 33.675781 39.699219 C 32.925781 40.226562 32.175781 40.523438 31.648438 40.148438 C 30.601562 39.324219 31.050781 33.699219 31.125 30.25 C 31.199219 26.5 31.726562 22.226562 32.476562 18.25 C 33.300781 14.351562 34.648438 9.699219 35.773438 6.851562 C 36.523438 4.976562 37.125 3.398438 38.023438 2.5 C 38.773438 1.824219 39.75 1.375 40.5 1.375 C 41.175781 1.300781 41.925781 1.675781 42.375 2.050781 C 42.824219 2.425781 43.050781 2.800781 43.199219 3.550781 C 43.648438 4.976562 43.425781 8.273438 43.273438 10.300781 C 43.125 12.023438 42.976562 13.449219 42.523438 15.101562 C 42 16.898438 41.476562 18.550781 40.273438 20.648438 C 38.476562 23.726562 35.101562 28.074219 32.023438 31.523438 C 29.023438 34.976562 24.976562 39.023438 22.050781 41.125 C 20.175781 42.476562 18.75 43.449219 16.875 43.824219 C 14.925781 44.199219 12.75 43.824219 10.5 43.074219 C 7.648438 42.175781 2.925781 39.773438 1.425781 37.898438 C 0.601562 36.851562 0.523438 35.875 0.375 34.601562 C 0.148438 32.800781 0.300781 30.398438 0.898438 28.148438 C 1.574219 25.300781 2.851562 21.550781 4.648438 19.074219 C 6.375 16.675781 8.925781 14.425781 11.101562 13.375 C 12.824219 12.550781 15 12.023438 16.425781 12.476562 C 17.625 12.925781 19.125 14.648438 19.273438 15.398438 C 19.351562 15.773438 19.125 16.300781 18.898438 16.449219 C 18.675781 16.523438 17.925781 16.074219 17.925781 16.074219 " clip-rule="nonzero"/></clipPath><clipPath id="99fd960efe"><rect x="0" width="176" y="0" height="47"/></clipPath><clipPath id="ae809d86e6"><path d="M 99.683594 128.632812 L 296.96875 128.632812 L 296.96875 156.890625 L 99.683594 156.890625 Z M 99.683594 128.632812 " clip-rule="nonzero"/></clipPath><clipPath id="1563bb30ac"><path d="M 100.125 155.398438 C 123.148438 149.625 174.824219 143.550781 200.851562 140.324219 C 219.976562 137.925781 237.75 135.824219 250.726562 134.625 C 258.976562 133.800781 264.300781 133.875 271.050781 133.125 C 277.875 132.449219 287.25 131.550781 291.523438 130.425781 C 293.625 129.898438 295.125 128.699219 296.023438 128.699219 C 296.398438 128.773438 296.773438 128.851562 296.851562 129.074219 C 296.925781 129.300781 296.699219 130.050781 296.476562 130.125 C 296.25 130.273438 295.574219 129.976562 295.5 129.75 C 295.425781 129.523438 296.023438 128.699219 296.175781 128.699219 C 296.398438 128.699219 296.773438 129.675781 296.550781 130.125 C 296.101562 131.023438 293.625 131.398438 290.175781 132.148438 C 277.726562 134.773438 231 138.148438 201.074219 141.75 C 170.625 145.5 123.375 151.125 109.125 154.199219 C 104.699219 155.175781 102 156.898438 100.574219 156.75 C 100.125 156.75 99.824219 156.523438 99.75 156.300781 C 99.675781 156.074219 100.125 155.398438 100.125 155.398438 " clip-rule="nonzero"/></clipPath><clipPath id="bfaa233665"><path d="M 0.683594 0.640625 L 197.96875 0.640625 L 197.96875 28.890625 L 0.683594 28.890625 Z M 0.683594 0.640625 " clip-rule="nonzero"/></clipPath><clipPath id="44e1ea56b6"><path d="M 1.125 27.398438 C 24.148438 21.625 75.824219 15.550781 101.851562 12.324219 C 120.976562 9.925781 138.75 7.824219 151.726562 6.625 C 159.976562 5.800781 165.300781 5.875 172.050781 5.125 C 178.875 4.449219 188.25 3.550781 192.523438 2.425781 C 194.625 1.898438 196.125 0.699219 197.023438 0.699219 C 197.398438 0.773438 197.773438 0.851562 197.851562 1.074219 C 197.925781 1.300781 197.699219 2.050781 197.476562 2.125 C 197.25 2.273438 196.574219 1.976562 196.5 1.75 C 196.425781 1.523438 197.023438 0.699219 197.175781 0.699219 C 197.398438 0.699219 197.773438 1.675781 197.550781 2.125 C 197.101562 3.023438 194.625 3.398438 191.175781 4.148438 C 178.726562 6.773438 132 10.148438 102.074219 13.75 C 71.625 17.5 24.375 23.125 10.125 26.199219 C 5.699219 27.175781 3 28.898438 1.574219 28.75 C 1.125 28.75 0.824219 28.523438 0.75 28.300781 C 0.675781 28.074219 1.125 27.398438 1.125 27.398438 " clip-rule="nonzero"/></clipPath><clipPath id="4133e052d4"><rect x="0" width="198" y="0" height="29"/></clipPath></defs><rect x="-37.5" width="450" fill="#ffffff" y="-37.499999" height="449.999989" fill-opacity="1"/><rect x="-37.5" width="450" fill="#ffffff" y="-37.499999" height="449.999989" fill-opacity="1"/><g clip-path="url(#07dbcc79fd)"><g clip-path="url(#84a294a7fd)"><g transform="matrix(1, 0, 0, 1, 105, 86)"><g clip-path="url(#99fd960efe)"><g clip-path="url(#d318a0373a)"><g clip-path="url(#b32d9d49f7)"><rect x="-187.5" width="540" fill="#000000" height="539.999987" y="-168.499998" fill-opacity="1"/></g></g></g></g></g></g><g clip-path="url(#ae809d86e6)"><g clip-path="url(#1563bb30ac)"><g transform="matrix(1, 0, 0, 1, 99, 128)"><g clip-path="url(#4133e052d4)"><g clip-path="url(#bfaa233665)"><g clip-path="url(#44e1ea56b6)"><rect x="-181.5" width="540" fill="#000000" height="539.999987" y="-210.499998" fill-opacity="1"/></g></g></g></g></g></g></svg>